<svg width="147" height="51" viewBox="0 0 147 51" fill="none" xmlns="http://www.w3.org/2000/svg">
<path d="M11.593 27.7789L8.87187 27.7505C8.09712 27.7505 7.50188 27.76 7.08616 27.7789C6.78382 30.4244 6.63265 32.5691 6.63265 34.2131C6.63265 35.8571 6.68934 37.0098 6.80271 37.6711C6.19803 37.7089 5.8012 37.7278 5.61224 37.7278C4.53514 37.7278 3.76039 37.5389 3.28798 37.1609C2.81557 36.783 2.57936 36.1216 2.57936 35.1768C2.57936 34.2131 2.84391 31.9172 3.37301 28.2891C2.76833 28.478 2.32426 28.6386 2.04081 28.7709C2.00302 28.3552 1.98412 28.0434 1.98412 27.8355C1.98412 26.5317 2.57936 25.7191 3.76984 25.3979C4.12887 22.8091 4.34618 20.5699 4.42176 18.6802C3.45805 18.6802 2.84391 18.548 2.57936 18.2834C2.33371 18.0189 2.21088 17.4331 2.21088 16.526C2.28647 15.6757 2.36205 15.1183 2.43764 14.8537C4.57294 15.1371 6.91609 15.2789 9.46711 15.2789C12.0181 15.2789 14.4841 15.0521 16.8651 14.5986C16.6005 16.5827 15.3911 17.7732 13.2369 18.17C12.0654 18.3968 10.393 18.548 8.21995 18.6235C8.20105 18.8692 7.92705 21.0706 7.39795 25.2278C8.49394 25.2656 9.24035 25.2845 9.63718 25.2845C11.4323 25.2845 12.7078 24.9727 13.4637 24.3492C13.5015 24.7271 13.5204 25.0105 13.5204 25.1995C13.5204 26.9191 12.8779 27.7789 11.593 27.7789ZM24.9583 23.0453C23.7301 23.0453 22.6341 23.8767 21.6704 25.5396C20.7066 27.1836 20.2248 28.8276 20.2248 30.4716C20.2248 33.9108 21.1129 35.6303 22.8892 35.6303C24.1552 35.6303 25.1851 34.8083 25.9788 33.1643C26.7724 31.5015 27.1692 29.6402 27.1692 27.5804C27.1692 24.557 26.4323 23.0453 24.9583 23.0453ZM26.7157 20.9761C27.8495 20.9761 28.8132 21.5336 29.6069 22.6485C30.4005 23.7634 30.7973 25.2562 30.7973 27.1269C30.7973 29.2244 30.3722 31.1519 29.5218 32.9092C28.577 34.8934 27.2354 36.2634 25.4969 37.0192C24.5143 37.4538 23.4372 37.6711 22.2656 37.6711C20.6216 37.6711 19.1855 37.0381 17.9572 35.7721C16.7478 34.4871 16.1432 32.6541 16.1432 30.2732C16.1432 27.8733 16.7289 25.7664 17.9005 23.9523C19.0721 22.1194 20.6216 20.9667 22.549 20.4943C22.7569 20.4943 22.9459 20.5604 23.1159 20.6927C23.3049 20.8061 23.3994 20.9289 23.3994 21.0612C21.4908 22.3839 20.3476 24.2263 19.9697 26.5884C20.3665 25.5302 20.8484 24.6137 21.4153 23.839C22.0011 23.0642 22.6057 22.4784 23.2293 22.0816C24.4198 21.3446 25.5819 20.9761 26.7157 20.9761ZM42.4523 23.0453C41.224 23.0453 40.128 23.8767 39.1643 25.5396C38.2006 27.1836 37.7187 28.8276 37.7187 30.4716C37.7187 33.9108 38.6069 35.6303 40.3831 35.6303C41.6492 35.6303 42.6791 34.8083 43.4727 33.1643C44.2664 31.5015 44.6632 29.6402 44.6632 27.5804C44.6632 24.557 43.9262 23.0453 42.4523 23.0453ZM44.2097 20.9761C45.3435 20.9761 46.3072 21.5336 47.1008 22.6485C47.8945 23.7634 48.2913 25.2562 48.2913 27.1269C48.2913 29.2244 47.8661 31.1519 47.0158 32.9092C46.071 34.8934 44.7293 36.2634 42.9909 37.0192C42.0082 37.4538 40.9311 37.6711 39.7596 37.6711C38.1156 37.6711 36.6794 37.0381 35.4512 35.7721C34.2418 34.4871 33.6371 32.6541 33.6371 30.2732C33.6371 27.8733 34.2229 25.7664 35.3945 23.9523C36.5661 22.1194 38.1156 20.9667 40.043 20.4943C40.2509 20.4943 40.4398 20.5604 40.6099 20.6927C40.7989 20.8061 40.8933 20.9289 40.8933 21.0612C38.9848 22.3839 37.8416 24.2263 37.4636 26.5884C37.8605 25.5302 38.3423 24.6137 38.9092 23.839C39.495 23.0642 40.0997 22.4784 40.7233 22.0816C41.9138 21.3446 43.0759 20.9761 44.2097 20.9761ZM54.9293 31.5204C54.9293 33.769 55.6095 34.8934 56.9701 34.8934C57.6881 34.8934 58.3873 34.506 59.0676 33.7312C59.7478 32.9565 60.2958 31.9172 60.7116 30.6133C61.1462 29.3095 61.5147 27.9206 61.817 26.4467C62.1382 24.9538 62.3745 23.376 62.5256 21.7131C62.7902 18.5007 62.9224 15.9969 62.9224 14.2018C62.9224 12.3877 62.8469 11.0272 62.6957 10.1201C64.0562 10.4225 65.0105 11.065 65.5585 12.0476C66.1065 13.0302 66.3805 14.2679 66.3805 15.7607C66.3805 17.2535 66.0593 20.0313 65.4168 24.0941C64.7932 28.1568 64.4814 31.1235 64.4814 32.9943C64.4814 34.865 64.5664 36.4523 64.7365 37.7562C63.3949 37.3971 62.4689 36.7547 61.9587 35.8287C61.4674 34.8839 61.2218 33.7029 61.2218 32.2857C60.636 33.9108 59.7573 35.1957 58.5857 36.1405C57.4141 37.0854 56.2048 37.5578 54.9576 37.5578C53.7104 37.5578 52.69 37.0854 51.8964 36.1405C51.1216 35.1768 50.7343 33.769 50.7343 31.9172C50.7343 28.9882 51.5373 26.475 53.1435 24.3775C54.7497 22.2611 56.6488 21.2029 58.8408 21.2029C59.4644 21.2029 60.447 21.3541 61.7887 21.6564C60.6171 21.9588 59.5683 22.4879 58.6424 23.2437C57.7354 23.9807 57.0268 24.831 56.5166 25.7947C55.4584 27.7033 54.9293 29.6118 54.9293 31.5204ZM83.2515 17.348V21.2312H77.9794V37.246H73.1325V21.2312H67.8604V17.348H83.2515ZM88.1217 19.7857C87.2714 19.7857 86.5722 19.54 86.0242 19.0487C85.4951 18.5385 85.2306 17.9149 85.2306 17.178C85.2306 16.4221 85.4951 15.7985 86.0242 15.3072C86.5722 14.797 87.2714 14.5419 88.1217 14.5419C88.9532 14.5419 89.6334 14.797 90.1625 15.3072C90.7105 15.7985 90.9845 16.4221 90.9845 17.178C90.9845 17.9149 90.7105 18.5385 90.1625 19.0487C89.6334 19.54 88.9532 19.7857 88.1217 19.7857ZM90.531 21.4297V37.246H85.6841V21.4297H90.531ZM114.225 21.2596C116.19 21.2596 117.749 21.8548 118.902 23.0453C120.073 24.2358 120.659 25.8892 120.659 28.0056V37.246H115.841V28.6575C115.841 27.6371 115.567 26.8529 115.019 26.3049C114.489 25.738 113.753 25.4546 112.808 25.4546C111.863 25.4546 111.116 25.738 110.568 26.3049C110.039 26.8529 109.775 27.6371 109.775 28.6575V37.246H104.956V28.6575C104.956 27.6371 104.682 26.8529 104.134 26.3049C103.605 25.738 102.868 25.4546 101.923 25.4546C100.979 25.4546 100.232 25.738 99.6841 26.3049C99.155 26.8529 98.8905 27.6371 98.8905 28.6575V37.246H94.0435V21.4297H98.8905V23.4138C99.3818 22.7524 100.024 22.2328 100.818 21.8548C101.612 21.458 102.509 21.2596 103.511 21.2596C104.701 21.2596 105.759 21.5147 106.685 22.0249C107.63 22.5351 108.367 23.2626 108.896 24.2074C109.444 23.3382 110.191 22.6296 111.135 22.0816C112.08 21.5336 113.11 21.2596 114.225 21.2596ZM138.958 29.0827C138.958 29.5362 138.93 30.0086 138.873 30.4999H127.904C127.979 31.4826 128.291 32.2384 128.839 32.7675C129.406 33.2777 130.096 33.5328 130.908 33.5328C132.118 33.5328 132.959 33.0226 133.431 32.0022H138.59C138.325 33.0415 137.843 33.9769 137.144 34.8083C136.464 35.6398 135.604 36.2917 134.565 36.7641C133.526 37.2365 132.363 37.4727 131.078 37.4727C129.529 37.4727 128.15 37.142 126.94 36.4807C125.731 35.8193 124.786 34.8745 124.106 33.6462C123.425 32.4179 123.085 30.9818 123.085 29.3378C123.085 27.6938 123.416 26.2577 124.077 25.0294C124.758 23.8012 125.702 22.8563 126.912 22.195C128.121 21.5336 129.51 21.2029 131.078 21.2029C132.609 21.2029 133.97 21.5241 135.16 22.1666C136.351 22.8091 137.277 23.7256 137.938 24.9161C138.618 26.1065 138.958 27.4954 138.958 29.0827ZM133.998 27.8072C133.998 26.9758 133.715 26.3144 133.148 25.8231C132.581 25.3318 131.872 25.0861 131.022 25.0861C130.209 25.0861 129.52 25.3223 128.953 25.7947C128.405 26.2671 128.064 26.938 127.932 27.8072H133.998Z" fill="#468764"/>
<path d="M140.508 0H138.534C138.251 0 138.023 0.227932 138.023 0.510567V11.816C138.023 11.9801 138.101 12.1305 138.233 12.2262L145.021 17.1769C145.249 17.341 145.568 17.2954 145.732 17.0675L146.904 15.4674V15.4629C147.068 15.2349 147.018 14.9158 146.79 14.7517L141.014 10.576V0.510567C141.018 0.227932 140.786 0 140.508 0Z" fill="#FF8B00"/>
</svg>
